<?xml version="1.0" standalone="no"?>
<!DOCTYPE svg PUBLIC "-//W3C//DTD SVG 20010904//EN"
 "http://www.w3.org/TR/2001/REC-SVG-20010904/DTD/svg10.dtd">
<svg version="1.0" xmlns="http://www.w3.org/2000/svg"
 width="300.000000pt" height="300.000000pt" viewBox="0 0 300.000000 300.000000"
 preserveAspectRatio="xMidYMid meet">
<metadata>
Created by potrace 1.10, written by Peter Selinger 2001-2011
</metadata>
<g transform="translate(0.000000,300.000000) scale(0.100000,-0.100000)"
fill="#000000" stroke="none">
<path d="M856 2535 c-11 -30 -6 -105 10 -143 35 -86 114 -135 205 -130 33 2
59 0 59 -3 0 -17 -65 -31 -122 -27 -57 5 -70 2 -132 -29 -213 -105 -355 -272
-425 -496 -23 -76 -37 -210 -27 -253 7 -27 8 -25 31 31 25 60 84 155 98 155
10 0 9 -4 -18 -59 -95 -187 -92 -468 6 -651 31 -58 115 -160 104 -125 -15 46
-24 129 -18 175 6 53 23 69 23 23 0 -16 7 -53 15 -83 45 -170 166 -319 317
-389 71 -33 199 -71 239 -71 7 0 -7 13 -32 29 -41 26 -109 110 -109 135 0 5
15 -4 33 -21 72 -70 271 -133 422 -133 39 0 101 7 138 15 64 13 147 50 147 66
0 3 -17 9 -37 13 -105 17 -227 113 -276 217 -37 79 -53 183 -39 254 15 76 55
156 102 203 l39 41 -69 0 c-157 0 -312 92 -393 232 -28 48 -51 125 -62 204 -6
39 -9 46 -16 30 -20 -51 -1 -162 42 -247 11 -21 47 -67 80 -103 68 -72 184
-139 264 -151 25 -3 45 -10 45 -14 0 -4 -14 -37 -30 -72 -61 -130 -61 -258 0
-387 34 -71 113 -159 176 -196 70 -41 57 -52 -66 -62 -127 -9 -335 39 -420 97
-65 45 -108 29 -96 -36 7 -34 6 -35 -16 -29 -57 17 -145 74 -197 126 -65 65
-107 138 -152 265 -17 49 -37 96 -46 104 -13 13 -17 12 -39 -13 -13 -15 -24
-37 -24 -48 0 -31 -19 -22 -36 18 -66 153 -67 333 -3 526 38 117 21 155 -48
110 l-26 -17 6 49 c4 28 30 96 58 154 44 91 63 116 142 196 71 71 111 101 174
133 72 37 89 42 150 42 71 0 108 13 127 43 17 27 -5 51 -55 60 -24 4 -54 10
-66 12 -33 7 -94 64 -109 102 -17 41 -18 83 -1 83 6 0 66 -14 132 -31 90 -23
152 -32 245 -36 116 -5 134 -3 252 26 118 29 188 38 188 26 0 -3 -5 -13 -11
-24 -16 -25 -3 -84 24 -108 22 -20 113 -43 172 -43 38 0 85 34 85 60 0 19 -44
50 -72 50 -7 1 -29 14 -48 30 -45 39 -26 39 98 -1 60 -19 133 -33 196 -39 92
-8 182 -31 235 -59 14 -8 21 -21 21 -43 0 -24 12 -44 55 -89 61 -64 63 -75 23
-171 -28 -65 -39 -73 -84 -56 -36 13 -37 13 -70 -26 -19 -22 -35 -37 -37 -35
-1 2 -7 17 -12 33 -18 52 -51 67 -161 73 -141 8 -201 -10 -271 -83 -42 -42
-53 -60 -53 -86 l0 -32 17 24 c30 46 78 92 118 113 34 19 56 22 150 22 61 0
123 -4 139 -8 l29 -8 -6 -75 c-4 -50 -2 -74 5 -74 23 0 77 52 97 93 19 39 25
44 56 45 19 1 35 -3 35 -8 0 -6 -10 -10 -22 -10 -21 0 -23 -5 -25 -55 -1 -30
2 -55 7 -55 16 0 71 72 77 100 3 16 14 37 24 46 21 19 59 130 59 172 0 19 -18
42 -67 88 -37 35 -64 66 -60 70 4 4 15 1 24 -8 19 -15 91 -58 99 -58 2 0 4 9
4 19 0 24 -56 69 -135 109 -95 47 -153 63 -260 72 -71 6 -133 19 -215 46 -151
50 -252 52 -410 10 -188 -51 -345 -45 -565 20 -49 14 -97 28 -106 31 -9 3 -19
-3 -23 -12z m983 -120 c33 -23 40 -32 35 -49 -9 -28 -8 -28 -38 -16 -15 5 -43
10 -63 10 -35 0 -36 0 -30 35 5 30 3 35 -14 35 -12 0 -17 4 -13 11 11 18 77 4
123 -26z m136 -55 c-8 -13 -83 -35 -91 -27 -4 4 -1 13 6 22 14 16 95 22 85 5z"/>
<path d="M1977 1944 c-61 -19 -161 -110 -136 -124 23 -13 4 -120 -21 -120 -43
0 -50 -69 -11 -104 23 -21 89 -43 169 -57 37 -6 100 -20 141 -30 68 -17 77
-18 98 -3 13 8 29 26 35 39 l11 25 32 -37 c30 -34 34 -36 58 -26 36 17 51 -5
51 -73 0 -89 -59 -149 -148 -149 -44 0 -62 6 -118 43 -133 87 -270 108 -408
63 -84 -28 -190 -37 -262 -22 -164 34 -275 142 -333 321 -32 99 -47 86 -24
-22 46 -218 243 -359 479 -345 49 3 111 14 145 27 73 25 186 28 262 5 28 -8
75 -31 105 -51 81 -55 103 -64 153 -64 140 0 237 152 176 274 -11 21 -23 52
-27 69 -3 18 -17 52 -29 77 -26 51 -30 46 -40 -47 -6 -59 -5 -63 15 -63 11 0
20 -5 20 -11 0 -6 -12 -9 -27 -7 -25 3 -29 8 -35 51 -11 77 -68 156 -68 93 0
-32 -18 -117 -29 -134 -6 -10 -22 -9 -82 7 -41 11 -110 25 -154 30 -45 6 -92
14 -107 20 -29 11 -68 56 -68 80 0 10 9 4 27 -18 25 -32 76 -61 107 -61 8 0 0
14 -20 34 -28 28 -34 41 -34 78 0 59 38 135 93 186 26 23 51 42 57 42 5 0 10
5 10 10 0 12 -4 12 -63 -6z"/>
</g>
</svg>
